solid CalderaCrater
facet normal 0 0 1
    outer loop
        vertex 0 0 0.1875
        vertex 1 0 0.1875
        vertex 0 1 0.1875
    endloop
endfacet
facet normal 0 0 -1
    outer loop
        vertex 0 1 0.1875
        vertex 1 1 0.1875
        vertex 1 0 0.1875
    endloop
endfacet
facet normal 0 0 1
    outer loop
        vertex 1 0 0.1875
        vertex 2 0 0.1875
        vertex 1 1 0.1875
    endloop
endfacet
facet normal 0 0 -1
    outer loop
        vertex 1 1 0.1875
        vertex 2 1 0.1875
        vertex 2 0 0.1875
    endloop
endfacet
facet normal 0 0 1
    outer loop
        vertex 2 0 0.1875
        vertex 3 0 0.1875
        vertex 2 1 0.1875
    endloop
endfacet
facet normal 0 0 -1
    outer loop
        vertex 2 1 0.1875
        vertex 3 1 0.1875
        vertex 3 0 0.1875
    endloop
endfacet
facet normal 0 0 1
    outer loop
        vertex 3 0 0.1875
        vertex 4 0 0.1875
        vertex 3 1 0.1875
    endloop
endfacet
facet normal 0 0 -1
    outer loop
        vertex 3 1 0.1875
        vertex 4 1 0.1875
        vertex 4 0 0.1875
    endloop
endfacet
facet normal 0 0 1
    outer loop
        vertex 4 0 0.1875
        vertex 5 0 0.1875
        vertex 4 1 0.1875
    endloop
endfacet
facet normal 0 0 -1
    outer loop
        vertex 4 1 0.1875
        vertex 5 1 0.1875
        vertex 5 0 0.1875
    endloop
endfacet
facet normal 0 0 1
    outer loop
        vertex 5 0 0.1875
        vertex 6 0 0.1875
        vertex 5 1 0.1875
    endloop
endfacet
facet normal 0 0 -1
    outer loop
        vertex 5 1 0.1875
        vertex 6 1 0.1875
        vertex 6 0 0.1875
    endloop
endfacet
facet normal 0 0 1
    outer loop
        vertex 6 0 0.1875
        vertex 7 0 0.1875
        vertex 6 1 0.1875
    endloop
endfacet
facet normal 0 0 -1
    outer loop
        vertex 6 1 0.1875
        vertex 7 1 0.1875
        vertex 7 0 0.1875
    endloop
endfacet
facet normal 0 0 1
    outer loop
        vertex 7 0 0.1875
        vertex 8 0 0.1875
        vertex 7 1 0.1875
    endloop
endfacet
facet normal 0 0 -1
    outer loop
        vertex 7 1 0.1875
        vertex 8 1 0.1875
        vertex 8 0 0.1875
    endloop
endfacet
facet normal 0 0 1
    outer loop
        vertex 8 0 0.1875
        vertex 9 0 0.1875
        vertex 8 1 0.1875
    endloop
endfacet
facet normal 0 0 -1
    outer loop
        vertex 8 1 0.1875
        vertex 9 1 0.1875
        vertex 9 0 0.1875
    endloop
endfacet
facet normal 0 0 1
    outer loop
        vertex 9 0 0.1875
        vertex 10 0 0.1875
        vertex 9 1 0.1875
    endloop
endfacet
facet normal 0 0 -1
    outer loop
        vertex 9 1 0.1875
        vertex 10 1 0.1875
        vertex 10 0 0.1875
    endloop
endfacet
facet normal 0 0 1
    outer loop
        vertex 10 0 0.1875
        vertex 11 0 0.1875
        vertex 10 1 0.1875
    endloop
endfacet
facet normal 0 0 -1
    outer loop
        vertex 10 1 0.1875
        vertex 11 1 0.1875
        vertex 11 0 0.1875
    endloop
endfacet
facet normal 0 0 1
    outer loop
        vertex 11 0 0.1875
        vertex 12 0 0.1875
        vertex 11 1 0.1875
    endloop
endfacet
facet normal 0 0 -1
    outer loop
        vertex 11 1 0.1875
        vertex 12 1 0.1875
        vertex 12 0 0.1875
    endloop
endfacet
facet normal 0 0 1
    outer loop
        vertex 12 0 0.1875
        vertex 13 0 0.1875
        vertex 12 1 0.1875
    endloop
endfacet
facet normal 0 0 -1
    outer loop
        vertex 12 1 0.1875
        vertex 13 1 0.1875
        vertex 13 0 0.1875
    endloop
endfacet
facet normal 0 0 1
    outer loop
        vertex 13 0 0.1875
        vertex 14 0 0.1875
        vertex 13 1 0.1875
    endloop
endfacet
facet normal 0 0 -1
    outer loop
        vertex 13 1 0.1875
        vertex 14 1 0.1875
        vertex 14 0 0.1875
    endloop
endfacet
facet normal 0 0 1
    outer loop
        vertex 14 0 0.1875
        vertex 15 0 0.1875
        vertex 14 1 0.1875
    endloop
endfacet
facet normal 0 0 -1
    outer loop
        vertex 14 1 0.1875
        vertex 15 1 0.1875
        vertex 15 0 0.1875
    endloop
endfacet
facet normal 0 0 1
    outer loop
        vertex 0 1 0.1875
        vertex 1 1 0.1875
        vertex 0 2 0.1875
    endloop
endfacet
facet normal 0 0 -1
    outer loop
        vertex 0 2 0.1875
        vertex 1 2 0.1875
        vertex 1 1 0.1875
    endloop
endfacet
facet normal 0 0 1
    outer loop
        vertex 1 1 0.1875
        vertex 2 1 0.1875
        vertex 1 2 0.1875
    endloop
endfacet
facet normal 0 0 -1
    outer loop
        vertex 1 2 0.1875
        vertex 2 2 0.1875
        vertex 2 1 0.1875
    endloop
endfacet
facet normal 0 0 1
    outer loop
        vertex 2 1 0.1875
        vertex 3 1 0.1875
        vertex 2 2 0.1875
    endloop
endfacet
facet normal 0 0 -1
    outer loop
        vertex 2 2 0.1875
        vertex 3 2 0.1875
        vertex 3 1 0.1875
    endloop
endfacet
facet normal 0 0 1
    outer loop
        vertex 3 1 0.1875
        vertex 4 1 0.1875
        vertex 3 2 0.1875
    endloop
endfacet
facet normal 0 0 -1
    outer loop
        vertex 3 2 0.1875
        vertex 4 2 0.1875
        vertex 4 1 0.1875
    endloop
endfacet
facet normal 0 0 1
    outer loop
        vertex 4 1 0.1875
        vertex 5 1 0.1875
        vertex 4 2 0.1875
    endloop
endfacet
facet normal 0 0 -1
    outer loop
        vertex 4 2 0.1875
        vertex 5 2 0.1875
        vertex 5 1 0.1875
    endloop
endfacet
facet normal 0 0 1
    outer loop
        vertex 5 1 0.1875
        vertex 6 1 0.1875
        vertex 5 2 0.1875
    endloop
endfacet
facet normal 0.375 0.375 -1
    outer loop
        vertex 5 2 0.1875
        vertex 6 2 0.5625
        vertex 6 1 0.1875
    endloop
endfacet
facet normal 0 -0.375 1
    outer loop
        vertex 6 1 0.1875
        vertex 7 1 0.1875
        vertex 6 2 0.5625
    endloop
endfacet
facet normal -0.4375 -0.0625 -1
    outer loop
        vertex 6 2 0.5625
        vertex 7 2 0.125
        vertex 7 1 0.1875
    endloop
endfacet
facet normal -0 0.0625 1
    outer loop
        vertex 7 1 0.1875
        vertex 8 1 0.1875
        vertex 7 2 0.125
    endloop
endfacet
facet normal 0 -0.0625 -1
    outer loop
        vertex 7 2 0.125
        vertex 8 2 0.125
        vertex 8 1 0.1875
    endloop
endfacet
facet normal -0 0.0625 1
    outer loop
        vertex 8 1 0.1875
        vertex 9 1 0.1875
        vertex 8 2 0.125
    endloop
endfacet
facet normal 0.4375 0.375 -1
    outer loop
        vertex 8 2 0.125
        vertex 9 2 0.5625
        vertex 9 1 0.1875
    endloop
endfacet
facet normal 0 -0.375 1
    outer loop
        vertex 9 1 0.1875
        vertex 10 1 0.1875
        vertex 9 2 0.5625
    endloop
endfacet
facet normal -0.375 0 -1
    outer loop
        vertex 9 2 0.5625
        vertex 10 2 0.1875
        vertex 10 1 0.1875
    endloop
endfacet
facet normal 0 0 1
    outer loop
        vertex 10 1 0.1875
        vertex 11 1 0.1875
        vertex 10 2 0.1875
    endloop
endfacet
facet normal 0 0 -1
    outer loop
        vertex 10 2 0.1875
        vertex 11 2 0.1875
        vertex 11 1 0.1875
    endloop
endfacet
facet normal 0 0 1
    outer loop
        vertex 11 1 0.1875
        vertex 12 1 0.1875
        vertex 11 2 0.1875
    endloop
endfacet
facet normal 0 0 -1
    outer loop
        vertex 11 2 0.1875
        vertex 12 2 0.1875
        vertex 12 1 0.1875
    endloop
endfacet
facet normal 0 0 1
    outer loop
        vertex 12 1 0.1875
        vertex 13 1 0.1875
        vertex 12 2 0.1875
    endloop
endfacet
facet normal 0 0 -1
    outer loop
        vertex 12 2 0.1875
        vertex 13 2 0.1875
        vertex 13 1 0.1875
    endloop
endfacet
facet normal 0 0 1
    outer loop
        vertex 13 1 0.1875
        vertex 14 1 0.1875
        vertex 13 2 0.1875
    endloop
endfacet
facet normal 0 0 -1
    outer loop
        vertex 13 2 0.1875
        vertex 14 2 0.1875
        vertex 14 1 0.1875
    endloop
endfacet
facet normal 0 0 1
    outer loop
        vertex 14 1 0.1875
        vertex 15 1 0.1875
        vertex 14 2 0.1875
    endloop
endfacet
facet normal 0 0 -1
    outer loop
        vertex 14 2 0.1875
        vertex 15 2 0.1875
        vertex 15 1 0.1875
    endloop
endfacet
facet normal 0 0 1
    outer loop
        vertex 0 2 0.1875
        vertex 1 2 0.1875
        vertex 0 3 0.1875
    endloop
endfacet
facet normal 0 0 -1
    outer loop
        vertex 0 3 0.1875
        vertex 1 3 0.1875
        vertex 1 2 0.1875
    endloop
endfacet
facet normal 0 0 1
    outer loop
        vertex 1 2 0.1875
        vertex 2 2 0.1875
        vertex 1 3 0.1875
    endloop
endfacet
facet normal 0 0 -1
    outer loop
        vertex 1 3 0.1875
        vertex 2 3 0.1875
        vertex 2 2 0.1875
    endloop
endfacet
facet normal 0 0 1
    outer loop
        vertex 2 2 0.1875
        vertex 3 2 0.1875
        vertex 2 3 0.1875
    endloop
endfacet
facet normal 0 0 -1
    outer loop
        vertex 2 3 0.1875
        vertex 3 3 0.1875
        vertex 3 2 0.1875
    endloop
endfacet
facet normal 0 0 1
    outer loop
        vertex 3 2 0.1875
        vertex 4 2 0.1875
        vertex 3 3 0.1875
    endloop
endfacet
facet normal 0.375 0.375 -1
    outer loop
        vertex 3 3 0.1875
        vertex 4 3 0.5625
        vertex 4 2 0.1875
    endloop
endfacet
facet normal 0 -0.375 1
    outer loop
        vertex 4 2 0.1875
        vertex 5 2 0.1875
        vertex 4 3 0.5625
    endloop
endfacet
facet normal 0.125 0.5 -1
    outer loop
        vertex 4 3 0.5625
        vertex 5 3 0.6875
        vertex 5 2 0.1875
    endloop
endfacet
facet normal -0.375 -0.5 1
    outer loop
        vertex 5 2 0.1875
        vertex 6 2 0.5625
        vertex 5 3 0.6875
    endloop
endfacet
facet normal 0 0.125 -1
    outer loop
        vertex 5 3 0.6875
        vertex 6 3 0.6875
        vertex 6 2 0.5625
    endloop
endfacet
facet normal 0.4375 -0.125 1
    outer loop
        vertex 6 2 0.5625
        vertex 7 2 0.125
        vertex 6 3 0.6875
    endloop
endfacet
facet normal -0.3125 0.25 -1
    outer loop
        vertex 6 3 0.6875
        vertex 7 3 0.375
        vertex 7 2 0.125
    endloop
endfacet
facet normal 0 -0.25 1
    outer loop
        vertex 7 2 0.125
        vertex 8 2 0.125
        vertex 7 3 0.375
    endloop
endfacet
facet normal 0 0.25 -1
    outer loop
        vertex 7 3 0.375
        vertex 8 3 0.375
        vertex 8 2 0.125
    endloop
endfacet
facet normal -0.4375 -0.25 1
    outer loop
        vertex 8 2 0.125
        vertex 9 2 0.5625
        vertex 8 3 0.375
    endloop
endfacet
facet normal 0.3125 0.125 -1
    outer loop
        vertex 8 3 0.375
        vertex 9 3 0.6875
        vertex 9 2 0.5625
    endloop
endfacet
facet normal 0.375 -0.125 1
    outer loop
        vertex 9 2 0.5625
        vertex 10 2 0.1875
        vertex 9 3 0.6875
    endloop
endfacet
facet normal -0.6875 -0.1875 -1
    outer loop
        vertex 9 3 0.6875
        vertex 10 3 0
        vertex 10 2 0.1875
    endloop
endfacet
facet normal -0 0.1875 1
    outer loop
        vertex 10 2 0.1875
        vertex 11 2 0.1875
        vertex 10 3 0
    endloop
endfacet
facet normal 0.125 -0.0625 -1
    outer loop
        vertex 10 3 0
        vertex 11 3 0.125
        vertex 11 2 0.1875
    endloop
endfacet
facet normal -0 0.0625 1
    outer loop
        vertex 11 2 0.1875
        vertex 12 2 0.1875
        vertex 11 3 0.125
    endloop
endfacet
facet normal 0.0625 0 -1
    outer loop
        vertex 11 3 0.125
        vertex 12 3 0.1875
        vertex 12 2 0.1875
    endloop
endfacet
facet normal 0 0 1
    outer loop
        vertex 12 2 0.1875
        vertex 13 2 0.1875
        vertex 12 3 0.1875
    endloop
endfacet
facet normal 0 0 -1
    outer loop
        vertex 12 3 0.1875
        vertex 13 3 0.1875
        vertex 13 2 0.1875
    endloop
endfacet
facet normal 0 0 1
    outer loop
        vertex 13 2 0.1875
        vertex 14 2 0.1875
        vertex 13 3 0.1875
    endloop
endfacet
facet normal 0 0 -1
    outer loop
        vertex 13 3 0.1875
        vertex 14 3 0.1875
        vertex 14 2 0.1875
    endloop
endfacet
facet normal 0 0 1
    outer loop
        vertex 14 2 0.1875
        vertex 15 2 0.1875
        vertex 14 3 0.1875
    endloop
endfacet
facet normal 0 0 -1
    outer loop
        vertex 14 3 0.1875
        vertex 15 3 0.1875
        vertex 15 2 0.1875
    endloop
endfacet
facet normal 0 0 1
    outer loop
        vertex 0 3 0.1875
        vertex 1 3 0.1875
        vertex 0 4 0.1875
    endloop
endfacet
facet normal 0 0 -1
    outer loop
        vertex 0 4 0.1875
        vertex 1 4 0.1875
        vertex 1 3 0.1875
    endloop
endfacet
facet normal 0 0 1
    outer loop
        vertex 1 3 0.1875
        vertex 2 3 0.1875
        vertex 1 4 0.1875
    endloop
endfacet
facet normal 0 0 -1
    outer loop
        vertex 1 4 0.1875
        vertex 2 4 0.1875
        vertex 2 3 0.1875
    endloop
endfacet
facet normal 0 0 1
    outer loop
        vertex 2 3 0.1875
        vertex 3 3 0.1875
        vertex 2 4 0.1875
    endloop
endfacet
facet normal 0.375 0.375 -1
    outer loop
        vertex 2 4 0.1875
        vertex 3 4 0.5625
        vertex 3 3 0.1875
    endloop
endfacet
facet normal -0.375 -0.375 1
    outer loop
        vertex 3 3 0.1875
        vertex 4 3 0.5625
        vertex 3 4 0.5625
    endloop
endfacet
facet normal -0.5625 -0.5625 -1
    outer loop
        vertex 3 4 0.5625
        vertex 4 4 0
        vertex 4 3 0.5625
    endloop
endfacet
facet normal -0.125 0.5625 1
    outer loop
        vertex 4 3 0.5625
        vertex 5 3 0.6875
        vertex 4 4 0
    endloop
endfacet
facet normal 0.375 -0.3125 -1
    outer loop
        vertex 4 4 0
        vertex 5 4 0.375
        vertex 5 3 0.6875
    endloop
endfacet
facet normal -0 0.3125 1
    outer loop
        vertex 5 3 0.6875
        vertex 6 3 0.6875
        vertex 5 4 0.375
    endloop
endfacet
facet normal 0.4375 0.125 -1
    outer loop
        vertex 5 4 0.375
        vertex 6 4 0.8125
        vertex 6 3 0.6875
    endloop
endfacet
facet normal 0.3125 -0.125 1
    outer loop
        vertex 6 3 0.6875
        vertex 7 3 0.375
        vertex 6 4 0.8125
    endloop
endfacet
facet normal -0.5 -0.0625 -1
    outer loop
        vertex 6 4 0.8125
        vertex 7 4 0.3125
        vertex 7 3 0.375
    endloop
endfacet
facet normal -0 0.0625 1
    outer loop
        vertex 7 3 0.375
        vertex 8 3 0.375
        vertex 7 4 0.3125
    endloop
endfacet
facet normal 0 -0.0625 -1
    outer loop
        vertex 7 4 0.3125
        vertex 8 4 0.3125
        vertex 8 3 0.375
    endloop
endfacet
facet normal -0.3125 0.0625 1
    outer loop
        vertex 8 3 0.375
        vertex 9 3 0.6875
        vertex 8 4 0.3125
    endloop
endfacet
facet normal 0.1875 -0.1875 -1
    outer loop
        vertex 8 4 0.3125
        vertex 9 4 0.5
        vertex 9 3 0.6875
    endloop
endfacet
facet normal 0.6875 0.1875 1
    outer loop
        vertex 9 3 0.6875
        vertex 10 3 0
        vertex 9 4 0.5
    endloop
endfacet
facet normal 0.125 0.625 -1
    outer loop
        vertex 9 4 0.5
        vertex 10 4 0.625
        vertex 10 3 0
    endloop
endfacet
facet normal -0.125 -0.625 1
    outer loop
        vertex 10 3 0
        vertex 11 3 0.125
        vertex 10 4 0.625
    endloop
endfacet
facet normal 0.0625 0.5625 -1
    outer loop
        vertex 10 4 0.625
        vertex 11 4 0.6875
        vertex 11 3 0.125
    endloop
endfacet
facet normal -0.0625 -0.5625 1
    outer loop
        vertex 11 3 0.125
        vertex 12 3 0.1875
        vertex 11 4 0.6875
    endloop
endfacet
facet normal -0.5625 -0.0625 -1
    outer loop
        vertex 11 4 0.6875
        vertex 12 4 0.125
        vertex 12 3 0.1875
    endloop
endfacet
facet normal -0 0.0625 1
    outer loop
        vertex 12 3 0.1875
        vertex 13 3 0.1875
        vertex 12 4 0.125
    endloop
endfacet
facet normal 0.0625 0 -1
    outer loop
        vertex 12 4 0.125
        vertex 13 4 0.1875
        vertex 13 3 0.1875
    endloop
endfacet
facet normal 0 0 1
    outer loop
        vertex 13 3 0.1875
        vertex 14 3 0.1875
        vertex 13 4 0.1875
    endloop
endfacet
facet normal 0 0 -1
    outer loop
        vertex 13 4 0.1875
        vertex 14 4 0.1875
        vertex 14 3 0.1875
    endloop
endfacet
facet normal 0 0 1
    outer loop
        vertex 14 3 0.1875
        vertex 15 3 0.1875
        vertex 14 4 0.1875
    endloop
endfacet
facet normal 0 0 -1
    outer loop
        vertex 14 4 0.1875
        vertex 15 4 0.1875
        vertex 15 3 0.1875
    endloop
endfacet
facet normal 0 0 1
    outer loop
        vertex 0 4 0.1875
        vertex 1 4 0.1875
        vertex 0 5 0.1875
    endloop
endfacet
facet normal 0 0 -1
    outer loop
        vertex 0 5 0.1875
        vertex 1 5 0.1875
        vertex 1 4 0.1875
    endloop
endfacet
facet normal 0 0 1
    outer loop
        vertex 1 4 0.1875
        vertex 2 4 0.1875
        vertex 1 5 0.1875
    endloop
endfacet
facet normal 0 0 -1
    outer loop
        vertex 1 5 0.1875
        vertex 2 5 0.1875
        vertex 2 4 0.1875
    endloop
endfacet
facet normal -0.375 0 1
    outer loop
        vertex 2 4 0.1875
        vertex 3 4 0.5625
        vertex 2 5 0.1875
    endloop
endfacet
facet normal 0.6875 0.3125 -1
    outer loop
        vertex 2 5 0.1875
        vertex 3 5 0.875
        vertex 3 4 0.5625
    endloop
endfacet
facet normal 0.5625 -0.3125 1
    outer loop
        vertex 3 4 0.5625
        vertex 4 4 0
        vertex 3 5 0.875
    endloop
endfacet
facet normal -0.5 0.375 -1
    outer loop
        vertex 3 5 0.875
        vertex 4 5 0.375
        vertex 4 4 0
    endloop
endfacet
facet normal -0.375 -0.375 1
    outer loop
        vertex 4 4 0
        vertex 5 4 0.375
        vertex 4 5 0.375
    endloop
endfacet
facet normal 0.125 0.125 -1
    outer loop
        vertex 4 5 0.375
        vertex 5 5 0.5
        vertex 5 4 0.375
    endloop
endfacet
facet normal -0.4375 -0.125 1
    outer loop
        vertex 5 4 0.375
        vertex 6 4 0.8125
        vertex 5 5 0.5
    endloop
endfacet
facet normal 0.0625 -0.25 -1
    outer loop
        vertex 5 5 0.5
        vertex 6 5 0.5625
        vertex 6 4 0.8125
    endloop
endfacet
facet normal 0.5 0.25 1
    outer loop
        vertex 6 4 0.8125
        vertex 7 4 0.3125
        vertex 6 5 0.5625
    endloop
endfacet
facet normal 0.1875 0.4375 -1
    outer loop
        vertex 6 5 0.5625
        vertex 7 5 0.75
        vertex 7 4 0.3125
    endloop
endfacet
facet normal 0 -0.4375 1
    outer loop
        vertex 7 4 0.3125
        vertex 8 4 0.3125
        vertex 7 5 0.75
    endloop
endfacet
facet normal 0 0.4375 -1
    outer loop
        vertex 7 5 0.75
        vertex 8 5 0.75
        vertex 8 4 0.3125
    endloop
endfacet
facet normal -0.1875 -0.4375 1
    outer loop
        vertex 8 4 0.3125
        vertex 9 4 0.5
        vertex 8 5 0.75
    endloop
endfacet
facet normal -0.1875 0.0625 -1
    outer loop
        vertex 8 5 0.75
        vertex 9 5 0.5625
        vertex 9 4 0.5
    endloop
endfacet
facet normal -0.125 -0.0625 1
    outer loop
        vertex 9 4 0.5
        vertex 10 4 0.625
        vertex 9 5 0.5625
    endloop
endfacet
facet normal -0.25 -0.3125 -1
    outer loop
        vertex 9 5 0.5625
        vertex 10 5 0.3125
        vertex 10 4 0.625
    endloop
endfacet
facet normal -0.0625 0.3125 1
    outer loop
        vertex 10 4 0.625
        vertex 11 4 0.6875
        vertex 10 5 0.3125
    endloop
endfacet
facet normal 0.3125 -0.0625 -1
    outer loop
        vertex 10 5 0.3125
        vertex 11 5 0.625
        vertex 11 4 0.6875
    endloop
endfacet
facet normal 0.5625 0.0625 1
    outer loop
        vertex 11 4 0.6875
        vertex 12 4 0.125
        vertex 11 5 0.625
    endloop
endfacet
facet normal -0.625 -0.125 -1
    outer loop
        vertex 11 5 0.625
        vertex 12 5 0
        vertex 12 4 0.125
    endloop
endfacet
facet normal -0.0625 0.125 1
    outer loop
        vertex 12 4 0.125
        vertex 13 4 0.1875
        vertex 12 5 0
    endloop
endfacet
facet normal 0.1875 0 -1
    outer loop
        vertex 12 5 0
        vertex 13 5 0.1875
        vertex 13 4 0.1875
    endloop
endfacet
facet normal 0 0 1
    outer loop
        vertex 13 4 0.1875
        vertex 14 4 0.1875
        vertex 13 5 0.1875
    endloop
endfacet
facet normal 0 0 -1
    outer loop
        vertex 13 5 0.1875
        vertex 14 5 0.1875
        vertex 14 4 0.1875
    endloop
endfacet
facet normal 0 0 1
    outer loop
        vertex 14 4 0.1875
        vertex 15 4 0.1875
        vertex 14 5 0.1875
    endloop
endfacet
facet normal 0 0 -1
    outer loop
        vertex 14 5 0.1875
        vertex 15 5 0.1875
        vertex 15 4 0.1875
    endloop
endfacet
facet normal 0 0 1
    outer loop
        vertex 0 5 0.1875
        vertex 1 5 0.1875
        vertex 0 6 0.1875
    endloop
endfacet
facet normal 0 0 -1
    outer loop
        vertex 0 6 0.1875
        vertex 1 6 0.1875
        vertex 1 5 0.1875
    endloop
endfacet
facet normal 0 0 1
    outer loop
        vertex 1 5 0.1875
        vertex 2 5 0.1875
        vertex 1 6 0.1875
    endloop
endfacet
facet normal 0.375 0.375 -1
    outer loop
        vertex 1 6 0.1875
        vertex 2 6 0.5625
        vertex 2 5 0.1875
    endloop
endfacet
facet normal -0.6875 -0.375 1
    outer loop
        vertex 2 5 0.1875
        vertex 3 5 0.875
        vertex 2 6 0.5625
    endloop
endfacet
facet normal -0.5625 -0.875 -1
    outer loop
        vertex 2 6 0.5625
        vertex 3 6 0
        vertex 3 5 0.875
    endloop
endfacet
facet normal 0.5 0.875 1
    outer loop
        vertex 3 5 0.875
        vertex 4 5 0.375
        vertex 3 6 0
    endloop
endfacet
facet normal 0.9375 0.5625 -1
    outer loop
        vertex 3 6 0
        vertex 4 6 0.9375
        vertex 4 5 0.375
    endloop
endfacet
facet normal -0.125 -0.5625 1
    outer loop
        vertex 4 5 0.375
        vertex 5 5 0.5
        vertex 4 6 0.9375
    endloop
endfacet
facet normal -0.625 -0.1875 -1
    outer loop
        vertex 4 6 0.9375
        vertex 5 6 0.3125
        vertex 5 5 0.5
    endloop
endfacet
facet normal -0.0625 0.1875 1
    outer loop
        vertex 5 5 0.5
        vertex 6 5 0.5625
        vertex 5 6 0.3125
    endloop
endfacet
facet normal -0.0625 -0.3125 -1
    outer loop
        vertex 5 6 0.3125
        vertex 6 6 0.25
        vertex 6 5 0.5625
    endloop
endfacet
facet normal -0.1875 0.3125 1
    outer loop
        vertex 6 5 0.5625
        vertex 7 5 0.75
        vertex 6 6 0.25
    endloop
endfacet
facet normal 0.5 0 -1
    outer loop
        vertex 6 6 0.25
        vertex 7 6 0.75
        vertex 7 5 0.75
    endloop
endfacet
facet normal 0 0 1
    outer loop
        vertex 7 5 0.75
        vertex 8 5 0.75
        vertex 7 6 0.75
    endloop
endfacet
facet normal -0.3125 -0.3125 -1
    outer loop
        vertex 7 6 0.75
        vertex 8 6 0.4375
        vertex 8 5 0.75
    endloop
endfacet
facet normal 0.1875 0.3125 1
    outer loop
        vertex 8 5 0.75
        vertex 9 5 0.5625
        vertex 8 6 0.4375
    endloop
endfacet
facet normal 0 -0.125 -1
    outer loop
        vertex 8 6 0.4375
        vertex 9 6 0.4375
        vertex 9 5 0.5625
    endloop
endfacet
facet normal 0.25 0.125 1
    outer loop
        vertex 9 5 0.5625
        vertex 10 5 0.3125
        vertex 9 6 0.4375
    endloop
endfacet
facet normal -0.1875 -0.0625 -1
    outer loop
        vertex 9 6 0.4375
        vertex 10 6 0.25
        vertex 10 5 0.3125
    endloop
endfacet
facet normal -0.3125 0.0625 1
    outer loop
        vertex 10 5 0.3125
        vertex 11 5 0.625
        vertex 10 6 0.25
    endloop
endfacet
facet normal 0.25 -0.125 -1
    outer loop
        vertex 10 6 0.25
        vertex 11 6 0.5
        vertex 11 5 0.625
    endloop
endfacet
facet normal 0.625 0.125 1
    outer loop
        vertex 11 5 0.625
        vertex 12 5 0
        vertex 11 6 0.5
    endloop
endfacet
facet normal -0.125 0.375 -1
    outer loop
        vertex 11 6 0.5
        vertex 12 6 0.375
        vertex 12 5 0
    endloop
endfacet
facet normal -0.1875 -0.375 1
    outer loop
        vertex 12 5 0
        vertex 13 5 0.1875
        vertex 12 6 0.375
    endloop
endfacet
facet normal -0.25 -0.0625 -1
    outer loop
        vertex 12 6 0.375
        vertex 13 6 0.125
        vertex 13 5 0.1875
    endloop
endfacet
facet normal -0 0.0625 1
    outer loop
        vertex 13 5 0.1875
        vertex 14 5 0.1875
        vertex 13 6 0.125
    endloop
endfacet
facet normal 0.0625 0 -1
    outer loop
        vertex 13 6 0.125
        vertex 14 6 0.1875
        vertex 14 5 0.1875
    endloop
endfacet
facet normal 0 0 1
    outer loop
        vertex 14 5 0.1875
        vertex 15 5 0.1875
        vertex 14 6 0.1875
    endloop
endfacet
facet normal 0 0 -1
    outer loop
        vertex 14 6 0.1875
        vertex 15 6 0.1875
        vertex 15 5 0.1875
    endloop
endfacet
facet normal 0 0 1
    outer loop
        vertex 0 6 0.1875
        vertex 1 6 0.1875
        vertex 0 7 0.1875
    endloop
endfacet
facet normal 0 0 -1
    outer loop
        vertex 0 7 0.1875
        vertex 1 7 0.1875
        vertex 1 6 0.1875
    endloop
endfacet
facet normal -0.375 0 1
    outer loop
        vertex 1 6 0.1875
        vertex 2 6 0.5625
        vertex 1 7 0.1875
    endloop
endfacet
facet normal 0.375 0 -1
    outer loop
        vertex 1 7 0.1875
        vertex 2 7 0.5625
        vertex 2 6 0.5625
    endloop
endfacet
facet normal 0.5625 -0 1
    outer loop
        vertex 2 6 0.5625
        vertex 3 6 0
        vertex 2 7 0.5625
    endloop
endfacet
facet normal 0.125 0.6875 -1
    outer loop
        vertex 2 7 0.5625
        vertex 3 7 0.6875
        vertex 3 6 0
    endloop
endfacet
facet normal -0.9375 -0.6875 1
    outer loop
        vertex 3 6 0
        vertex 4 6 0.9375
        vertex 3 7 0.6875
    endloop
endfacet
facet normal -0.1875 -0.4375 -1
    outer loop
        vertex 3 7 0.6875
        vertex 4 7 0.5
        vertex 4 6 0.9375
    endloop
endfacet
facet normal 0.625 0.4375 1
    outer loop
        vertex 4 6 0.9375
        vertex 5 6 0.3125
        vertex 4 7 0.5
    endloop
endfacet
facet normal 0.25 0.4375 -1
    outer loop
        vertex 4 7 0.5
        vertex 5 7 0.75
        vertex 5 6 0.3125
    endloop
endfacet
facet normal 0.0625 -0.4375 1
    outer loop
        vertex 5 6 0.3125
        vertex 6 6 0.25
        vertex 5 7 0.75
    endloop
endfacet
facet normal -0.5 0 -1
    outer loop
        vertex 5 7 0.75
        vertex 6 7 0.25
        vertex 6 6 0.25
    endloop
endfacet
facet normal -0.5 0 1
    outer loop
        vertex 6 6 0.25
        vertex 7 6 0.75
        vertex 6 7 0.25
    endloop
endfacet
facet normal 0.1875 -0.3125 -1
    outer loop
        vertex 6 7 0.25
        vertex 7 7 0.4375
        vertex 7 6 0.75
    endloop
endfacet
facet normal 0.3125 0.3125 1
    outer loop
        vertex 7 6 0.75
        vertex 8 6 0.4375
        vertex 7 7 0.4375
    endloop
endfacet
facet normal -0.375 -0.375 -1
    outer loop
        vertex 7 7 0.4375
        vertex 8 7 0.0625
        vertex 8 6 0.4375
    endloop
endfacet
facet normal -0 0.375 1
    outer loop
        vertex 8 6 0.4375
        vertex 9 6 0.4375
        vertex 8 7 0.0625
    endloop
endfacet
facet normal 0 -0.375 -1
    outer loop
        vertex 8 7 0.0625
        vertex 9 7 0.0625
        vertex 9 6 0.4375
    endloop
endfacet
facet normal 0.1875 0.375 1
    outer loop
        vertex 9 6 0.4375
        vertex 10 6 0.25
        vertex 9 7 0.0625
    endloop
endfacet
facet normal 0.1875 0 -1
    outer loop
        vertex 9 7 0.0625
        vertex 10 7 0.25
        vertex 10 6 0.25
    endloop
endfacet
facet normal -0.25 0 1
    outer loop
        vertex 10 6 0.25
        vertex 11 6 0.5
        vertex 10 7 0.25
    endloop
endfacet
facet normal 0.0625 -0.1875 -1
    outer loop
        vertex 10 7 0.25
        vertex 11 7 0.3125
        vertex 11 6 0.5
    endloop
endfacet
facet normal 0.125 0.1875 1
    outer loop
        vertex 11 6 0.5
        vertex 12 6 0.375
        vertex 11 7 0.3125
    endloop
endfacet
facet normal 0.0625 0 -1
    outer loop
        vertex 11 7 0.3125
        vertex 12 7 0.375
        vertex 12 6 0.375
    endloop
endfacet
facet normal 0.25 -0 1
    outer loop
        vertex 12 6 0.375
        vertex 13 6 0.125
        vertex 12 7 0.375
    endloop
endfacet
facet normal 0.5 0.75 -1
    outer loop
        vertex 12 7 0.375
        vertex 13 7 0.875
        vertex 13 6 0.125
    endloop
endfacet
facet normal -0.0625 -0.75 1
    outer loop
        vertex 13 6 0.125
        vertex 14 6 0.1875
        vertex 13 7 0.875
    endloop
endfacet
facet normal -0.6875 0 -1
    outer loop
        vertex 13 7 0.875
        vertex 14 7 0.1875
        vertex 14 6 0.1875
    endloop
endfacet
facet normal 0 0 1
    outer loop
        vertex 14 6 0.1875
        vertex 15 6 0.1875
        vertex 14 7 0.1875
    endloop
endfacet
facet normal 0 0 -1
    outer loop
        vertex 14 7 0.1875
        vertex 15 7 0.1875
        vertex 15 6 0.1875
    endloop
endfacet
facet normal 0 0 1
    outer loop
        vertex 0 7 0.1875
        vertex 1 7 0.1875
        vertex 0 8 0.1875
    endloop
endfacet
facet normal 0 0 -1
    outer loop
        vertex 0 8 0.1875
        vertex 1 8 0.1875
        vertex 1 7 0.1875
    endloop
endfacet
facet normal -0.375 0 1
    outer loop
        vertex 1 7 0.1875
        vertex 2 7 0.5625
        vertex 1 8 0.1875
    endloop
endfacet
facet normal 0.375 0 -1
    outer loop
        vertex 1 8 0.1875
        vertex 2 8 0.5625
        vertex 2 7 0.5625
    endloop
endfacet
facet normal -0.125 0 1
    outer loop
        vertex 2 7 0.5625
        vertex 3 7 0.6875
        vertex 2 8 0.5625
    endloop
endfacet
facet normal 0.125 0 -1
    outer loop
        vertex 2 8 0.5625
        vertex 3 8 0.6875
        vertex 3 7 0.6875
    endloop
endfacet
facet normal 0.1875 -0 1
    outer loop
        vertex 3 7 0.6875
        vertex 4 7 0.5
        vertex 3 8 0.6875
    endloop
endfacet
facet normal -0.1875 0 -1
    outer loop
        vertex 3 8 0.6875
        vertex 4 8 0.5
        vertex 4 7 0.5
    endloop
endfacet
facet normal -0.25 0 1
    outer loop
        vertex 4 7 0.5
        vertex 5 7 0.75
        vertex 4 8 0.5
    endloop
endfacet
facet normal -0.25 -0.5 -1
    outer loop
        vertex 4 8 0.5
        vertex 5 8 0.25
        vertex 5 7 0.75
    endloop
endfacet
facet normal 0.5 0.5 1
    outer loop
        vertex 5 7 0.75
        vertex 6 7 0.25
        vertex 5 8 0.25
    endloop
endfacet
facet normal 0.1875 0.1875 -1
    outer loop
        vertex 5 8 0.25
        vertex 6 8 0.4375
        vertex 6 7 0.25
    endloop
endfacet
facet normal -0.1875 -0.1875 1
    outer loop
        vertex 6 7 0.25
        vertex 7 7 0.4375
        vertex 6 8 0.4375
    endloop
endfacet
facet normal 0 0 -1
    outer loop
        vertex 6 8 0.4375
        vertex 7 8 0.4375
        vertex 7 7 0.4375
    endloop
endfacet
facet normal 0.375 -0 1
    outer loop
        vertex 7 7 0.4375
        vertex 8 7 0.0625
        vertex 7 8 0.4375
    endloop
endfacet
facet normal -0.375 0 -1
    outer loop
        vertex 7 8 0.4375
        vertex 8 8 0.0625
        vertex 8 7 0.0625
    endloop
endfacet
facet normal 0 0 1
    outer loop
        vertex 8 7 0.0625
        vertex 9 7 0.0625
        vertex 8 8 0.0625
    endloop
endfacet
facet normal 0.375 0.375 -1
    outer loop
        vertex 8 8 0.0625
        vertex 9 8 0.4375
        vertex 9 7 0.0625
    endloop
endfacet
facet normal -0.1875 -0.375 1
    outer loop
        vertex 9 7 0.0625
        vertex 10 7 0.25
        vertex 9 8 0.4375
    endloop
endfacet
facet normal 0 0.1875 -1
    outer loop
        vertex 9 8 0.4375
        vertex 10 8 0.4375
        vertex 10 7 0.25
    endloop
endfacet
facet normal -0.0625 -0.1875 1
    outer loop
        vertex 10 7 0.25
        vertex 11 7 0.3125
        vertex 10 8 0.4375
    endloop
endfacet
facet normal 0.5 0.625 -1
    outer loop
        vertex 10 8 0.4375
        vertex 11 8 0.9375
        vertex 11 7 0.3125
    endloop
endfacet
facet normal -0.0625 -0.625 1
    outer loop
        vertex 11 7 0.3125
        vertex 12 7 0.375
        vertex 11 8 0.9375
    endloop
endfacet
facet normal -0.5625 0 -1
    outer loop
        vertex 11 8 0.9375
        vertex 12 8 0.375
        vertex 12 7 0.375
    endloop
endfacet
facet normal -0.5 0 1
    outer loop
        vertex 12 7 0.375
        vertex 13 7 0.875
        vertex 12 8 0.375
    endloop
endfacet
facet normal 0.5 0 -1
    outer loop
        vertex 12 8 0.375
        vertex 13 8 0.875
        vertex 13 7 0.875
    endloop
endfacet
facet normal 0.6875 -0 1
    outer loop
        vertex 13 7 0.875
        vertex 14 7 0.1875
        vertex 13 8 0.875
    endloop
endfacet
facet normal -0.6875 0 -1
    outer loop
        vertex 13 8 0.875
        vertex 14 8 0.1875
        vertex 14 7 0.1875
    endloop
endfacet
facet normal 0 0 1
    outer loop
        vertex 14 7 0.1875
        vertex 15 7 0.1875
        vertex 14 8 0.1875
    endloop
endfacet
facet normal 0 0 -1
    outer loop
        vertex 14 8 0.1875
        vertex 15 8 0.1875
        vertex 15 7 0.1875
    endloop
endfacet
facet normal 0 0 1
    outer loop
        vertex 0 8 0.1875
        vertex 1 8 0.1875
        vertex 0 9 0.1875
    endloop
endfacet
facet normal 0 0 -1
    outer loop
        vertex 0 9 0.1875
        vertex 1 9 0.1875
        vertex 1 8 0.1875
    endloop
endfacet
facet normal -0.375 0 1
    outer loop
        vertex 1 8 0.1875
        vertex 2 8 0.5625
        vertex 1 9 0.1875
    endloop
endfacet
facet normal 0 -0.375 -1
    outer loop
        vertex 1 9 0.1875
        vertex 2 9 0.1875
        vertex 2 8 0.5625
    endloop
endfacet
facet normal -0.125 0.375 1
    outer loop
        vertex 2 8 0.5625
        vertex 3 8 0.6875
        vertex 2 9 0.1875
    endloop
endfacet
facet normal -0.1875 -0.6875 -1
    outer loop
        vertex 2 9 0.1875
        vertex 3 9 0
        vertex 3 8 0.6875
    endloop
endfacet
facet normal 0.1875 0.6875 1
    outer loop
        vertex 3 8 0.6875
        vertex 4 8 0.5
        vertex 3 9 0
    endloop
endfacet
facet normal 0.9375 0.4375 -1
    outer loop
        vertex 3 9 0
        vertex 4 9 0.9375
        vertex 4 8 0.5
    endloop
endfacet
facet normal 0.25 -0.4375 1
    outer loop
        vertex 4 8 0.5
        vertex 5 8 0.25
        vertex 4 9 0.9375
    endloop
endfacet
facet normal -0.625 0.0625 -1
    outer loop
        vertex 4 9 0.9375
        vertex 5 9 0.3125
        vertex 5 8 0.25
    endloop
endfacet
facet normal -0.1875 -0.0625 1
    outer loop
        vertex 5 8 0.25
        vertex 6 8 0.4375
        vertex 5 9 0.3125
    endloop
endfacet
facet normal 0.4375 0.3125 -1
    outer loop
        vertex 5 9 0.3125
        vertex 6 9 0.75
        vertex 6 8 0.4375
    endloop
endfacet
facet normal 0 -0.3125 1
    outer loop
        vertex 6 8 0.4375
        vertex 7 8 0.4375
        vertex 6 9 0.75
    endloop
endfacet
facet normal -0.3125 0 -1
    outer loop
        vertex 6 9 0.75
        vertex 7 9 0.4375
        vertex 7 8 0.4375
    endloop
endfacet
facet normal 0.375 -0 1
    outer loop
        vertex 7 8 0.4375
        vertex 8 8 0.0625
        vertex 7 9 0.4375
    endloop
endfacet
facet normal 0 0.375 -1
    outer loop
        vertex 7 9 0.4375
        vertex 8 9 0.4375
        vertex 8 8 0.0625
    endloop
endfacet
facet normal -0.375 -0.375 1
    outer loop
        vertex 8 8 0.0625
        vertex 9 8 0.4375
        vertex 8 9 0.4375
    endloop
endfacet
facet normal 0.3125 0.3125 -1
    outer loop
        vertex 8 9 0.4375
        vertex 9 9 0.75
        vertex 9 8 0.4375
    endloop
endfacet
facet normal 0 -0.3125 1
    outer loop
        vertex 9 8 0.4375
        vertex 10 8 0.4375
        vertex 9 9 0.75
    endloop
endfacet
facet normal -0.5 -0.1875 -1
    outer loop
        vertex 9 9 0.75
        vertex 10 9 0.25
        vertex 10 8 0.4375
    endloop
endfacet
facet normal -0.5 0.1875 1
    outer loop
        vertex 10 8 0.4375
        vertex 11 8 0.9375
        vertex 10 9 0.25
    endloop
endfacet
facet normal 0.375 -0.3125 -1
    outer loop
        vertex 10 9 0.25
        vertex 11 9 0.625
        vertex 11 8 0.9375
    endloop
endfacet
facet normal 0.5625 0.3125 1
    outer loop
        vertex 11 8 0.9375
        vertex 12 8 0.375
        vertex 11 9 0.625
    endloop
endfacet
facet normal -0.25 0 -1
    outer loop
        vertex 11 9 0.625
        vertex 12 9 0.375
        vertex 12 8 0.375
    endloop
endfacet
facet normal -0.5 0 1
    outer loop
        vertex 12 8 0.375
        vertex 13 8 0.875
        vertex 12 9 0.375
    endloop
endfacet
facet normal -0.25 -0.75 -1
    outer loop
        vertex 12 9 0.375
        vertex 13 9 0.125
        vertex 13 8 0.875
    endloop
endfacet
facet normal 0.6875 0.75 1
    outer loop
        vertex 13 8 0.875
        vertex 14 8 0.1875
        vertex 13 9 0.125
    endloop
endfacet
facet normal 0.0625 0 -1
    outer loop
        vertex 13 9 0.125
        vertex 14 9 0.1875
        vertex 14 8 0.1875
    endloop
endfacet
facet normal 0 0 1
    outer loop
        vertex 14 8 0.1875
        vertex 15 8 0.1875
        vertex 14 9 0.1875
    endloop
endfacet
facet normal 0 0 -1
    outer loop
        vertex 14 9 0.1875
        vertex 15 9 0.1875
        vertex 15 8 0.1875
    endloop
endfacet
facet normal 0 0 1
    outer loop
        vertex 0 9 0.1875
        vertex 1 9 0.1875
        vertex 0 10 0.1875
    endloop
endfacet
facet normal 0 0 -1
    outer loop
        vertex 0 10 0.1875
        vertex 1 10 0.1875
        vertex 1 9 0.1875
    endloop
endfacet
facet normal 0 0 1
    outer loop
        vertex 1 9 0.1875
        vertex 2 9 0.1875
        vertex 1 10 0.1875
    endloop
endfacet
facet normal 0 0 -1
    outer loop
        vertex 1 10 0.1875
        vertex 2 10 0.1875
        vertex 2 9 0.1875
    endloop
endfacet
facet normal 0.1875 -0 1
    outer loop
        vertex 2 9 0.1875
        vertex 3 9 0
        vertex 2 10 0.1875
    endloop
endfacet
facet normal 0.5 0.6875 -1
    outer loop
        vertex 2 10 0.1875
        vertex 3 10 0.6875
        vertex 3 9 0
    endloop
endfacet
facet normal -0.9375 -0.6875 1
    outer loop
        vertex 3 9 0
        vertex 4 9 0.9375
        vertex 3 10 0.6875
    endloop
endfacet
facet normal -0.3125 -0.5625 -1
    outer loop
        vertex 3 10 0.6875
        vertex 4 10 0.375
        vertex 4 9 0.9375
    endloop
endfacet
facet normal 0.625 0.5625 1
    outer loop
        vertex 4 9 0.9375
        vertex 5 9 0.3125
        vertex 4 10 0.375
    endloop
endfacet
facet normal 0.125 0.1875 -1
    outer loop
        vertex 4 10 0.375
        vertex 5 10 0.5
        vertex 5 9 0.3125
    endloop
endfacet
facet normal -0.4375 -0.1875 1
    outer loop
        vertex 5 9 0.3125
        vertex 6 9 0.75
        vertex 5 10 0.5
    endloop
endfacet
facet normal 0.0625 -0.1875 -1
    outer loop
        vertex 5 10 0.5
        vertex 6 10 0.5625
        vertex 6 9 0.75
    endloop
endfacet
facet normal 0.3125 0.1875 1
    outer loop
        vertex 6 9 0.75
        vertex 7 9 0.4375
        vertex 6 10 0.5625
    endloop
endfacet
facet normal -0.5 -0.375 -1
    outer loop
        vertex 6 10 0.5625
        vertex 7 10 0.0625
        vertex 7 9 0.4375
    endloop
endfacet
facet normal -0 0.375 1
    outer loop
        vertex 7 9 0.4375
        vertex 8 9 0.4375
        vertex 7 10 0.0625
    endloop
endfacet
facet normal 0.375 0 -1
    outer loop
        vertex 7 10 0.0625
        vertex 8 10 0.4375
        vertex 8 9 0.4375
    endloop
endfacet
facet normal -0.3125 0 1
    outer loop
        vertex 8 9 0.4375
        vertex 9 9 0.75
        vertex 8 10 0.4375
    endloop
endfacet
facet normal 0.0625 -0.25 -1
    outer loop
        vertex 8 10 0.4375
        vertex 9 10 0.5
        vertex 9 9 0.75
    endloop
endfacet
facet normal 0.5 0.25 1
    outer loop
        vertex 9 9 0.75
        vertex 10 9 0.25
        vertex 9 10 0.5
    endloop
endfacet
facet normal -0.1875 0.0625 -1
    outer loop
        vertex 9 10 0.5
        vertex 10 10 0.3125
        vertex 10 9 0.25
    endloop
endfacet
facet normal -0.375 -0.0625 1
    outer loop
        vertex 10 9 0.25
        vertex 11 9 0.625
        vertex 10 10 0.3125
    endloop
endfacet
facet normal 0.3125 0 -1
    outer loop
        vertex 10 10 0.3125
        vertex 11 10 0.625
        vertex 11 9 0.625
    endloop
endfacet
facet normal 0.25 -0 1
    outer loop
        vertex 11 9 0.625
        vertex 12 9 0.375
        vertex 11 10 0.625
    endloop
endfacet
facet normal -0.625 -0.375 -1
    outer loop
        vertex 11 10 0.625
        vertex 12 10 0
        vertex 12 9 0.375
    endloop
endfacet
facet normal 0.25 0.375 1
    outer loop
        vertex 12 9 0.375
        vertex 13 9 0.125
        vertex 12 10 0
    endloop
endfacet
facet normal 0.1875 0.0625 -1
    outer loop
        vertex 12 10 0
        vertex 13 10 0.1875
        vertex 13 9 0.125
    endloop
endfacet
facet normal -0.0625 -0.0625 1
    outer loop
        vertex 13 9 0.125
        vertex 14 9 0.1875
        vertex 13 10 0.1875
    endloop
endfacet
facet normal 0 0 -1
    outer loop
        vertex 13 10 0.1875
        vertex 14 10 0.1875
        vertex 14 9 0.1875
    endloop
endfacet
facet normal 0 0 1
    outer loop
        vertex 14 9 0.1875
        vertex 15 9 0.1875
        vertex 14 10 0.1875
    endloop
endfacet
facet normal 0 0 -1
    outer loop
        vertex 14 10 0.1875
        vertex 15 10 0.1875
        vertex 15 9 0.1875
    endloop
endfacet
facet normal 0 0 1
    outer loop
        vertex 0 10 0.1875
        vertex 1 10 0.1875
        vertex 0 11 0.1875
    endloop
endfacet
facet normal 0 0 -1
    outer loop
        vertex 0 11 0.1875
        vertex 1 11 0.1875
        vertex 1 10 0.1875
    endloop
endfacet
facet normal 0 0 1
    outer loop
        vertex 1 10 0.1875
        vertex 2 10 0.1875
        vertex 1 11 0.1875
    endloop
endfacet
facet normal 0 0 -1
    outer loop
        vertex 1 11 0.1875
        vertex 2 11 0.1875
        vertex 2 10 0.1875
    endloop
endfacet
facet normal -0.5 0 1
    outer loop
        vertex 2 10 0.1875
        vertex 3 10 0.6875
        vertex 2 11 0.1875
    endloop
endfacet
facet normal 0.375 -0.125 -1
    outer loop
        vertex 2 11 0.1875
        vertex 3 11 0.5625
        vertex 3 10 0.6875
    endloop
endfacet
facet normal 0.3125 0.125 1
    outer loop
        vertex 3 10 0.6875
        vertex 4 10 0.375
        vertex 3 11 0.5625
    endloop
endfacet
facet normal -0.5625 -0.375 -1
    outer loop
        vertex 3 11 0.5625
        vertex 4 11 0
        vertex 4 10 0.375
    endloop
endfacet
facet normal -0.125 0.375 1
    outer loop
        vertex 4 10 0.375
        vertex 5 10 0.5
        vertex 4 11 0
    endloop
endfacet
facet normal 0.375 -0.125 -1
    outer loop
        vertex 4 11 0
        vertex 5 11 0.375
        vertex 5 10 0.5
    endloop
endfacet
facet normal -0.0625 0.125 1
    outer loop
        vertex 5 10 0.5
        vertex 6 10 0.5625
        vertex 5 11 0.375
    endloop
endfacet
facet normal 0.4375 0.25 -1
    outer loop
        vertex 5 11 0.375
        vertex 6 11 0.8125
        vertex 6 10 0.5625
    endloop
endfacet
facet normal 0.5 -0.25 1
    outer loop
        vertex 6 10 0.5625
        vertex 7 10 0.0625
        vertex 6 11 0.8125
    endloop
endfacet
facet normal 0 0.75 -1
    outer loop
        vertex 6 11 0.8125
        vertex 7 11 0.8125
        vertex 7 10 0.0625
    endloop
endfacet
facet normal -0.375 -0.75 1
    outer loop
        vertex 7 10 0.0625
        vertex 8 10 0.4375
        vertex 7 11 0.8125
    endloop
endfacet
facet normal -0.5 -0.125 -1
    outer loop
        vertex 7 11 0.8125
        vertex 8 11 0.3125
        vertex 8 10 0.4375
    endloop
endfacet
facet normal -0.0625 0.125 1
    outer loop
        vertex 8 10 0.4375
        vertex 9 10 0.5
        vertex 8 11 0.3125
    endloop
endfacet
facet normal 0.1875 0 -1
    outer loop
        vertex 8 11 0.3125
        vertex 9 11 0.5
        vertex 9 10 0.5
    endloop
endfacet
facet normal 0.1875 -0 1
    outer loop
        vertex 9 10 0.5
        vertex 10 10 0.3125
        vertex 9 11 0.5
    endloop
endfacet
facet normal 0.125 0.3125 -1
    outer loop
        vertex 9 11 0.5
        vertex 10 11 0.625
        vertex 10 10 0.3125
    endloop
endfacet
facet normal -0.3125 -0.3125 1
    outer loop
        vertex 10 10 0.3125
        vertex 11 10 0.625
        vertex 10 11 0.625
    endloop
endfacet
facet normal 0.0625 0.0625 -1
    outer loop
        vertex 10 11 0.625
        vertex 11 11 0.6875
        vertex 11 10 0.625
    endloop
endfacet
facet normal 0.625 -0.0625 1
    outer loop
        vertex 11 10 0.625
        vertex 12 10 0
        vertex 11 11 0.6875
    endloop
endfacet
facet normal -0.5625 0.125 -1
    outer loop
        vertex 11 11 0.6875
        vertex 12 11 0.125
        vertex 12 10 0
    endloop
endfacet
facet normal -0.1875 -0.125 1
    outer loop
        vertex 12 10 0
        vertex 13 10 0.1875
        vertex 12 11 0.125
    endloop
endfacet
facet normal 0.0625 0 -1
    outer loop
        vertex 12 11 0.125
        vertex 13 11 0.1875
        vertex 13 10 0.1875
    endloop
endfacet
facet normal 0 0 1
    outer loop
        vertex 13 10 0.1875
        vertex 14 10 0.1875
        vertex 13 11 0.1875
    endloop
endfacet
facet normal 0 0 -1
    outer loop
        vertex 13 11 0.1875
        vertex 14 11 0.1875
        vertex 14 10 0.1875
    endloop
endfacet
facet normal 0 0 1
    outer loop
        vertex 14 10 0.1875
        vertex 15 10 0.1875
        vertex 14 11 0.1875
    endloop
endfacet
facet normal 0 0 -1
    outer loop
        vertex 14 11 0.1875
        vertex 15 11 0.1875
        vertex 15 10 0.1875
    endloop
endfacet
facet normal 0 0 1
    outer loop
        vertex 0 11 0.1875
        vertex 1 11 0.1875
        vertex 0 12 0.1875
    endloop
endfacet
facet normal 0 0 -1
    outer loop
        vertex 0 12 0.1875
        vertex 1 12 0.1875
        vertex 1 11 0.1875
    endloop
endfacet
facet normal 0 0 1
    outer loop
        vertex 1 11 0.1875
        vertex 2 11 0.1875
        vertex 1 12 0.1875
    endloop
endfacet
facet normal 0 0 -1
    outer loop
        vertex 1 12 0.1875
        vertex 2 12 0.1875
        vertex 2 11 0.1875
    endloop
endfacet
facet normal -0.375 0 1
    outer loop
        vertex 2 11 0.1875
        vertex 3 11 0.5625
        vertex 2 12 0.1875
    endloop
endfacet
facet normal 0 -0.375 -1
    outer loop
        vertex 2 12 0.1875
        vertex 3 12 0.1875
        vertex 3 11 0.5625
    endloop
endfacet
facet normal 0.5625 0.375 1
    outer loop
        vertex 3 11 0.5625
        vertex 4 11 0
        vertex 3 12 0.1875
    endloop
endfacet
facet normal 0.375 0.5625 -1
    outer loop
        vertex 3 12 0.1875
        vertex 4 12 0.5625
        vertex 4 11 0
    endloop
endfacet
facet normal -0.375 -0.5625 1
    outer loop
        vertex 4 11 0
        vertex 5 11 0.375
        vertex 4 12 0.5625
    endloop
endfacet
facet normal 0.3125 0.5 -1
    outer loop
        vertex 4 12 0.5625
        vertex 5 12 0.875
        vertex 5 11 0.375
    endloop
endfacet
facet normal -0.4375 -0.5 1
    outer loop
        vertex 5 11 0.375
        vertex 6 11 0.8125
        vertex 5 12 0.875
    endloop
endfacet
facet normal -0.1875 -0.125 -1
    outer loop
        vertex 5 12 0.875
        vertex 6 12 0.6875
        vertex 6 11 0.8125
    endloop
endfacet
facet normal -0 0.125 1
    outer loop
        vertex 6 11 0.8125
        vertex 7 11 0.8125
        vertex 6 12 0.6875
    endloop
endfacet
facet normal -0.3125 -0.4375 -1
    outer loop
        vertex 6 12 0.6875
        vertex 7 12 0.375
        vertex 7 11 0.8125
    endloop
endfacet
facet normal 0.5 0.4375 1
    outer loop
        vertex 7 11 0.8125
        vertex 8 11 0.3125
        vertex 7 12 0.375
    endloop
endfacet
facet normal 0 0.0625 -1
    outer loop
        vertex 7 12 0.375
        vertex 8 12 0.375
        vertex 8 11 0.3125
    endloop
endfacet
facet normal -0.1875 -0.0625 1
    outer loop
        vertex 8 11 0.3125
        vertex 9 11 0.5
        vertex 8 12 0.375
    endloop
endfacet
facet normal 0.3125 0.1875 -1
    outer loop
        vertex 8 12 0.375
        vertex 9 12 0.6875
        vertex 9 11 0.5
    endloop
endfacet
facet normal -0.125 -0.1875 1
    outer loop
        vertex 9 11 0.5
        vertex 10 11 0.625
        vertex 9 12 0.6875
    endloop
endfacet
facet normal -0.6875 -0.625 -1
    outer loop
        vertex 9 12 0.6875
        vertex 10 12 0
        vertex 10 11 0.625
    endloop
endfacet
facet normal -0.0625 0.625 1
    outer loop
        vertex 10 11 0.625
        vertex 11 11 0.6875
        vertex 10 12 0
    endloop
endfacet
facet normal 0.125 -0.5625 -1
    outer loop
        vertex 10 12 0
        vertex 11 12 0.125
        vertex 11 11 0.6875
    endloop
endfacet
facet normal 0.5625 0.5625 1
    outer loop
        vertex 11 11 0.6875
        vertex 12 11 0.125
        vertex 11 12 0.125
    endloop
endfacet
facet normal 0.0625 0.0625 -1
    outer loop
        vertex 11 12 0.125
        vertex 12 12 0.1875
        vertex 12 11 0.125
    endloop
endfacet
facet normal -0.0625 -0.0625 1
    outer loop
        vertex 12 11 0.125
        vertex 13 11 0.1875
        vertex 12 12 0.1875
    endloop
endfacet
facet normal 0 0 -1
    outer loop
        vertex 12 12 0.1875
        vertex 13 12 0.1875
        vertex 13 11 0.1875
    endloop
endfacet
facet normal 0 0 1
    outer loop
        vertex 13 11 0.1875
        vertex 14 11 0.1875
        vertex 13 12 0.1875
    endloop
endfacet
facet normal 0 0 -1
    outer loop
        vertex 13 12 0.1875
        vertex 14 12 0.1875
        vertex 14 11 0.1875
    endloop
endfacet
facet normal 0 0 1
    outer loop
        vertex 14 11 0.1875
        vertex 15 11 0.1875
        vertex 14 12 0.1875
    endloop
endfacet
facet normal 0 0 -1
    outer loop
        vertex 14 12 0.1875
        vertex 15 12 0.1875
        vertex 15 11 0.1875
    endloop
endfacet
facet normal 0 0 1
    outer loop
        vertex 0 12 0.1875
        vertex 1 12 0.1875
        vertex 0 13 0.1875
    endloop
endfacet
facet normal 0 0 -1
    outer loop
        vertex 0 13 0.1875
        vertex 1 13 0.1875
        vertex 1 12 0.1875
    endloop
endfacet
facet normal 0 0 1
    outer loop
        vertex 1 12 0.1875
        vertex 2 12 0.1875
        vertex 1 13 0.1875
    endloop
endfacet
facet normal 0 0 -1
    outer loop
        vertex 1 13 0.1875
        vertex 2 13 0.1875
        vertex 2 12 0.1875
    endloop
endfacet
facet normal 0 0 1
    outer loop
        vertex 2 12 0.1875
        vertex 3 12 0.1875
        vertex 2 13 0.1875
    endloop
endfacet
facet normal 0 0 -1
    outer loop
        vertex 2 13 0.1875
        vertex 3 13 0.1875
        vertex 3 12 0.1875
    endloop
endfacet
facet normal -0.375 0 1
    outer loop
        vertex 3 12 0.1875
        vertex 4 12 0.5625
        vertex 3 13 0.1875
    endloop
endfacet
facet normal 0 -0.375 -1
    outer loop
        vertex 3 13 0.1875
        vertex 4 13 0.1875
        vertex 4 12 0.5625
    endloop
endfacet
facet normal -0.3125 0.375 1
    outer loop
        vertex 4 12 0.5625
        vertex 5 12 0.875
        vertex 4 13 0.1875
    endloop
endfacet
facet normal 0 -0.6875 -1
    outer loop
        vertex 4 13 0.1875
        vertex 5 13 0.1875
        vertex 5 12 0.875
    endloop
endfacet
facet normal 0.1875 0.6875 1
    outer loop
        vertex 5 12 0.875
        vertex 6 12 0.6875
        vertex 5 13 0.1875
    endloop
endfacet
facet normal 0.375 -0.125 -1
    outer loop
        vertex 5 13 0.1875
        vertex 6 13 0.5625
        vertex 6 12 0.6875
    endloop
endfacet
facet normal 0.3125 0.125 1
    outer loop
        vertex 6 12 0.6875
        vertex 7 12 0.375
        vertex 6 13 0.5625
    endloop
endfacet
facet normal -0.4375 -0.25 -1
    outer loop
        vertex 6 13 0.5625
        vertex 7 13 0.125
        vertex 7 12 0.375
    endloop
endfacet
facet normal -0 0.25 1
    outer loop
        vertex 7 12 0.375
        vertex 8 12 0.375
        vertex 7 13 0.125
    endloop
endfacet
facet normal 0 -0.25 -1
    outer loop
        vertex 7 13 0.125
        vertex 8 13 0.125
        vertex 8 12 0.375
    endloop
endfacet
facet normal -0.3125 0.25 1
    outer loop
        vertex 8 12 0.375
        vertex 9 12 0.6875
        vertex 8 13 0.125
    endloop
endfacet
facet normal 0.4375 -0.125 -1
    outer loop
        vertex 8 13 0.125
        vertex 9 13 0.5625
        vertex 9 12 0.6875
    endloop
endfacet
facet normal 0.6875 0.125 1
    outer loop
        vertex 9 12 0.6875
        vertex 10 12 0
        vertex 9 13 0.5625
    endloop
endfacet
facet normal -0.375 0.1875 -1
    outer loop
        vertex 9 13 0.5625
        vertex 10 13 0.1875
        vertex 10 12 0
    endloop
endfacet
facet normal -0.125 -0.1875 1
    outer loop
        vertex 10 12 0
        vertex 11 12 0.125
        vertex 10 13 0.1875
    endloop
endfacet
facet normal 0 0.0625 -1
    outer loop
        vertex 10 13 0.1875
        vertex 11 13 0.1875
        vertex 11 12 0.125
    endloop
endfacet
facet normal -0.0625 -0.0625 1
    outer loop
        vertex 11 12 0.125
        vertex 12 12 0.1875
        vertex 11 13 0.1875
    endloop
endfacet
facet normal 0 0 -1
    outer loop
        vertex 11 13 0.1875
        vertex 12 13 0.1875
        vertex 12 12 0.1875
    endloop
endfacet
facet normal 0 0 1
    outer loop
        vertex 12 12 0.1875
        vertex 13 12 0.1875
        vertex 12 13 0.1875
    endloop
endfacet
facet normal 0 0 -1
    outer loop
        vertex 12 13 0.1875
        vertex 13 13 0.1875
        vertex 13 12 0.1875
    endloop
endfacet
facet normal 0 0 1
    outer loop
        vertex 13 12 0.1875
        vertex 14 12 0.1875
        vertex 13 13 0.1875
    endloop
endfacet
facet normal 0 0 -1
    outer loop
        vertex 13 13 0.1875
        vertex 14 13 0.1875
        vertex 14 12 0.1875
    endloop
endfacet
facet normal 0 0 1
    outer loop
        vertex 14 12 0.1875
        vertex 15 12 0.1875
        vertex 14 13 0.1875
    endloop
endfacet
facet normal 0 0 -1
    outer loop
        vertex 14 13 0.1875
        vertex 15 13 0.1875
        vertex 15 12 0.1875
    endloop
endfacet
facet normal 0 0 1
    outer loop
        vertex 0 13 0.1875
        vertex 1 13 0.1875
        vertex 0 14 0.1875
    endloop
endfacet
facet normal 0 0 -1
    outer loop
        vertex 0 14 0.1875
        vertex 1 14 0.1875
        vertex 1 13 0.1875
    endloop
endfacet
facet normal 0 0 1
    outer loop
        vertex 1 13 0.1875
        vertex 2 13 0.1875
        vertex 1 14 0.1875
    endloop
endfacet
facet normal 0 0 -1
    outer loop
        vertex 1 14 0.1875
        vertex 2 14 0.1875
        vertex 2 13 0.1875
    endloop
endfacet
facet normal 0 0 1
    outer loop
        vertex 2 13 0.1875
        vertex 3 13 0.1875
        vertex 2 14 0.1875
    endloop
endfacet
facet normal 0 0 -1
    outer loop
        vertex 2 14 0.1875
        vertex 3 14 0.1875
        vertex 3 13 0.1875
    endloop
endfacet
facet normal 0 0 1
    outer loop
        vertex 3 13 0.1875
        vertex 4 13 0.1875
        vertex 3 14 0.1875
    endloop
endfacet
facet normal 0 0 -1
    outer loop
        vertex 3 14 0.1875
        vertex 4 14 0.1875
        vertex 4 13 0.1875
    endloop
endfacet
facet normal 0 0 1
    outer loop
        vertex 4 13 0.1875
        vertex 5 13 0.1875
        vertex 4 14 0.1875
    endloop
endfacet
facet normal 0 0 -1
    outer loop
        vertex 4 14 0.1875
        vertex 5 14 0.1875
        vertex 5 13 0.1875
    endloop
endfacet
facet normal -0.375 0 1
    outer loop
        vertex 5 13 0.1875
        vertex 6 13 0.5625
        vertex 5 14 0.1875
    endloop
endfacet
facet normal 0 -0.375 -1
    outer loop
        vertex 5 14 0.1875
        vertex 6 14 0.1875
        vertex 6 13 0.5625
    endloop
endfacet
facet normal 0.4375 0.375 1
    outer loop
        vertex 6 13 0.5625
        vertex 7 13 0.125
        vertex 6 14 0.1875
    endloop
endfacet
facet normal 0 0.0625 -1
    outer loop
        vertex 6 14 0.1875
        vertex 7 14 0.1875
        vertex 7 13 0.125
    endloop
endfacet
facet normal 0 -0.0625 1
    outer loop
        vertex 7 13 0.125
        vertex 8 13 0.125
        vertex 7 14 0.1875
    endloop
endfacet
facet normal 0 0.0625 -1
    outer loop
        vertex 7 14 0.1875
        vertex 8 14 0.1875
        vertex 8 13 0.125
    endloop
endfacet
facet normal -0.4375 -0.0625 1
    outer loop
        vertex 8 13 0.125
        vertex 9 13 0.5625
        vertex 8 14 0.1875
    endloop
endfacet
facet normal 0 -0.375 -1
    outer loop
        vertex 8 14 0.1875
        vertex 9 14 0.1875
        vertex 9 13 0.5625
    endloop
endfacet
facet normal 0.375 0.375 1
    outer loop
        vertex 9 13 0.5625
        vertex 10 13 0.1875
        vertex 9 14 0.1875
    endloop
endfacet
facet normal 0 0 -1
    outer loop
        vertex 9 14 0.1875
        vertex 10 14 0.1875
        vertex 10 13 0.1875
    endloop
endfacet
facet normal 0 0 1
    outer loop
        vertex 10 13 0.1875
        vertex 11 13 0.1875
        vertex 10 14 0.1875
    endloop
endfacet
facet normal 0 0 -1
    outer loop
        vertex 10 14 0.1875
        vertex 11 14 0.1875
        vertex 11 13 0.1875
    endloop
endfacet
facet normal 0 0 1
    outer loop
        vertex 11 13 0.1875
        vertex 12 13 0.1875
        vertex 11 14 0.1875
    endloop
endfacet
facet normal 0 0 -1
    outer loop
        vertex 11 14 0.1875
        vertex 12 14 0.1875
        vertex 12 13 0.1875
    endloop
endfacet
facet normal 0 0 1
    outer loop
        vertex 12 13 0.1875
        vertex 13 13 0.1875
        vertex 12 14 0.1875
    endloop
endfacet
facet normal 0 0 -1
    outer loop
        vertex 12 14 0.1875
        vertex 13 14 0.1875
        vertex 13 13 0.1875
    endloop
endfacet
facet normal 0 0 1
    outer loop
        vertex 13 13 0.1875
        vertex 14 13 0.1875
        vertex 13 14 0.1875
    endloop
endfacet
facet normal 0 0 -1
    outer loop
        vertex 13 14 0.1875
        vertex 14 14 0.1875
        vertex 14 13 0.1875
    endloop
endfacet
facet normal 0 0 1
    outer loop
        vertex 14 13 0.1875
        vertex 15 13 0.1875
        vertex 14 14 0.1875
    endloop
endfacet
facet normal 0 0 -1
    outer loop
        vertex 14 14 0.1875
        vertex 15 14 0.1875
        vertex 15 13 0.1875
    endloop
endfacet
facet normal 0 0 1
    outer loop
        vertex 0 14 0.1875
        vertex 1 14 0.1875
        vertex 0 15 0.1875
    endloop
endfacet
facet normal 0 0 -1
    outer loop
        vertex 0 15 0.1875
        vertex 1 15 0.1875
        vertex 1 14 0.1875
    endloop
endfacet
facet normal 0 0 1
    outer loop
        vertex 1 14 0.1875
        vertex 2 14 0.1875
        vertex 1 15 0.1875
    endloop
endfacet
facet normal 0 0 -1
    outer loop
        vertex 1 15 0.1875
        vertex 2 15 0.1875
        vertex 2 14 0.1875
    endloop
endfacet
facet normal 0 0 1
    outer loop
        vertex 2 14 0.1875
        vertex 3 14 0.1875
        vertex 2 15 0.1875
    endloop
endfacet
facet normal 0 0 -1
    outer loop
        vertex 2 15 0.1875
        vertex 3 15 0.1875
        vertex 3 14 0.1875
    endloop
endfacet
facet normal 0 0 1
    outer loop
        vertex 3 14 0.1875
        vertex 4 14 0.1875
        vertex 3 15 0.1875
    endloop
endfacet
facet normal 0 0 -1
    outer loop
        vertex 3 15 0.1875
        vertex 4 15 0.1875
        vertex 4 14 0.1875
    endloop
endfacet
facet normal 0 0 1
    outer loop
        vertex 4 14 0.1875
        vertex 5 14 0.1875
        vertex 4 15 0.1875
    endloop
endfacet
facet normal 0 0 -1
    outer loop
        vertex 4 15 0.1875
        vertex 5 15 0.1875
        vertex 5 14 0.1875
    endloop
endfacet
facet normal 0 0 1
    outer loop
        vertex 5 14 0.1875
        vertex 6 14 0.1875
        vertex 5 15 0.1875
    endloop
endfacet
facet normal 0 0 -1
    outer loop
        vertex 5 15 0.1875
        vertex 6 15 0.1875
        vertex 6 14 0.1875
    endloop
endfacet
facet normal 0 0 1
    outer loop
        vertex 6 14 0.1875
        vertex 7 14 0.1875
        vertex 6 15 0.1875
    endloop
endfacet
facet normal 0 0 -1
    outer loop
        vertex 6 15 0.1875
        vertex 7 15 0.1875
        vertex 7 14 0.1875
    endloop
endfacet
facet normal 0 0 1
    outer loop
        vertex 7 14 0.1875
        vertex 8 14 0.1875
        vertex 7 15 0.1875
    endloop
endfacet
facet normal 0 0 -1
    outer loop
        vertex 7 15 0.1875
        vertex 8 15 0.1875
        vertex 8 14 0.1875
    endloop
endfacet
facet normal 0 0 1
    outer loop
        vertex 8 14 0.1875
        vertex 9 14 0.1875
        vertex 8 15 0.1875
    endloop
endfacet
facet normal 0 0 -1
    outer loop
        vertex 8 15 0.1875
        vertex 9 15 0.1875
        vertex 9 14 0.1875
    endloop
endfacet
facet normal 0 0 1
    outer loop
        vertex 9 14 0.1875
        vertex 10 14 0.1875
        vertex 9 15 0.1875
    endloop
endfacet
facet normal 0 0 -1
    outer loop
        vertex 9 15 0.1875
        vertex 10 15 0.1875
        vertex 10 14 0.1875
    endloop
endfacet
facet normal 0 0 1
    outer loop
        vertex 10 14 0.1875
        vertex 11 14 0.1875
        vertex 10 15 0.1875
    endloop
endfacet
facet normal 0 0 -1
    outer loop
        vertex 10 15 0.1875
        vertex 11 15 0.1875
        vertex 11 14 0.1875
    endloop
endfacet
facet normal 0 0 1
    outer loop
        vertex 11 14 0.1875
        vertex 12 14 0.1875
        vertex 11 15 0.1875
    endloop
endfacet
facet normal 0 0 -1
    outer loop
        vertex 11 15 0.1875
        vertex 12 15 0.1875
        vertex 12 14 0.1875
    endloop
endfacet
facet normal 0 0 1
    outer loop
        vertex 12 14 0.1875
        vertex 13 14 0.1875
        vertex 12 15 0.1875
    endloop
endfacet
facet normal 0 0 -1
    outer loop
        vertex 12 15 0.1875
        vertex 13 15 0.1875
        vertex 13 14 0.1875
    endloop
endfacet
facet normal 0 0 1
    outer loop
        vertex 13 14 0.1875
        vertex 14 14 0.1875
        vertex 13 15 0.1875
    endloop
endfacet
facet normal 0 0 -1
    outer loop
        vertex 13 15 0.1875
        vertex 14 15 0.1875
        vertex 14 14 0.1875
    endloop
endfacet
facet normal 0 0 1
    outer loop
        vertex 14 14 0.1875
        vertex 15 14 0.1875
        vertex 14 15 0.1875
    endloop
endfacet
facet normal 0 0 -1
    outer loop
        vertex 14 15 0.1875
        vertex 15 15 0.1875
        vertex 15 14 0.1875
    endloop
endfacet
endsolid CalderaCrater
